<svg xmlns="http://www.w3.org/2000/svg" version="1.1" xmlns:xlink="http://www.w3.org/1999/xlink" xmlns:svgjs="http://svgjs.dev/svgjs" width="2000" height="1500" viewBox="0 0 2000 1500"><rect width="2000" height="1500" fill="#333333"></rect><g transform="matrix(0.75,0,0,0.75,249.090909090909,584.0509542397592)"><svg viewBox="0 0 396 88" data-background-color="#333333" preserveAspectRatio="xMidYMid meet" height="444" width="2000" xmlns="http://www.w3.org/2000/svg" xmlns:xlink="http://www.w3.org/1999/xlink"><g id="tight-bounds" transform="matrix(1,0,0,1,0.2400000000000091,-0.14559751681323974)"><svg viewBox="0 0 395.52 88.29119503362648" height="88.29119503362648" width="395.52"><g><svg viewBox="0 0 395.52 88.29119503362648" height="88.29119503362648" width="395.52"><g><svg viewBox="0 0 395.52 88.29119503362648" height="88.29119503362648" width="395.52"><g id="textblocktransform"><svg viewBox="0 0 395.52 88.29119503362648" height="88.29119503362648" width="395.52" id="textblock"><g><svg viewBox="0 0 395.52 88.29119503362648" height="88.29119503362648" width="395.52"><g transform="matrix(1,0,0,1,0,0)"><svg width="395.52" viewBox="3.8 -33 193.28 43.15" height="88.29119503362648" data-palette-color="#fce44d"><path d="M14.6-30.65Q19.75-30.65 22.6-28.7 25.45-26.75 26.53-23.4 27.6-20.05 27.6-15.3L27.6-15.3Q27.6-10.55 26.53-7.23 25.45-3.9 22.6-1.95 19.75 0 14.6 0L14.6 0 3.8 0 3.8-30.65 14.6-30.65ZM13.7-2.3Q18.1-2.3 19.68-5.73 21.25-9.15 21.25-15.3L21.25-15.3Q21.25-21.45 19.68-24.9 18.1-28.35 13.7-28.35L13.7-28.35 10.1-28.35 10.1-2.3 13.7-2.3ZM53.55-12L53.55-11.3 38.7-11.3Q38.7-6.4 39.85-4.45 41-2.5 43.6-2.5L43.6-2.5Q47.8-2.5 48.1-7.1L48.1-7.1 53.25-6.9Q52.9-3.4 50.65-1.4 48.4 0.6 43.35 0.6L43.35 0.6Q37.55 0.6 35-2.53 32.45-5.65 32.45-12L32.45-12Q32.45-17.7 34.82-21.15 37.2-24.6 43.25-24.6L43.25-24.6Q49.1-24.6 51.32-21.1 53.55-17.6 53.55-12L53.55-12ZM43.2-21.5Q41.05-21.5 40.02-19.88 39-18.25 38.8-14.4L38.8-14.4 47.5-14.4Q47.35-17.95 46.37-19.73 45.4-21.5 43.2-21.5L43.2-21.5ZM78.84-12L78.84-11.3 64-11.3Q64-6.4 65.15-4.45 66.3-2.5 68.9-2.5L68.9-2.5Q73.09-2.5 73.4-7.1L73.4-7.1 78.55-6.9Q78.2-3.4 75.95-1.4 73.7 0.6 68.65 0.6L68.65 0.6Q62.85 0.6 60.3-2.53 57.75-5.65 57.75-12L57.75-12Q57.75-17.7 60.12-21.15 62.5-24.6 68.55-24.6L68.55-24.6Q74.4-24.6 76.62-21.1 78.84-17.6 78.84-12L78.84-12ZM68.5-21.5Q66.34-21.5 65.32-19.88 64.3-18.25 64.09-14.4L64.09-14.4 72.8-14.4Q72.65-17.95 71.67-19.73 70.7-21.5 68.5-21.5L68.5-21.5ZM96.19-24.6Q101.69-24.6 103.89-21.13 106.09-17.65 106.09-12L106.09-12Q106.09-6.35 103.89-2.88 101.69 0.6 96.09 0.6L96.09 0.6Q93.39 0.6 90.99-0.15L90.99-0.15 90.99 9.3 84.74 10.15 84.74-24 87.59-24 89.54-22.2Q92.94-24.6 96.19-24.6L96.19-24.6ZM94.44-2.5Q97.34-2.5 98.59-4.9 99.84-7.3 99.84-12L99.84-12Q99.84-16.2 98.54-18.65 97.24-21.1 94.39-21.1L94.39-21.1Q92.74-21.1 90.99-20.15L90.99-20.15 90.99-2.9Q91.84-2.65 92.59-2.58 93.34-2.5 94.44-2.5L94.44-2.5ZM120.89-33Q123.94-33 127.09-31.3L127.09-31.3 125.19-26.85Q124.44-27.95 123.44-28.63 122.44-29.3 121.39-29.3L121.39-29.3Q120.09-29.3 119.39-28.45 118.69-27.6 118.69-26.25L118.69-26.25 118.69-24 123.49-24 123.49-20.85 118.69-20.85 118.69 0 112.44 0 112.44-20.85 108.69-20.85 108.69-24 112.44-24 112.44-24.75Q112.44-28.85 114.57-30.93 116.69-33 120.89-33L120.89-33ZM132.04 0.6Q128.94 0.6 127.11-1.13 125.29-2.85 125.29-5.8L125.29-5.8Q125.29-9 127.61-10.75 129.94-12.5 134.69-13.3L134.69-13.3 139.49-14.15 139.49-16.6Q139.49-21.5 135.89-21.5L135.89-21.5Q133.74-21.5 132.71-20.15 131.69-18.8 131.54-15.9L131.54-15.9 126.34-16.45Q126.69-20.55 128.86-22.58 131.04-24.6 135.99-24.6L135.99-24.6Q140.79-24.6 143.26-22.5 145.74-20.4 145.74-16.25L145.74-16.25 145.74 0 141.69 0 139.89-3.15Q138.34-1.25 136.34-0.33 134.34 0.6 132.04 0.6L132.04 0.6ZM134.29-2.65Q135.79-2.65 137.19-3.48 138.59-4.3 139.49-5.4L139.49-5.4 139.49-11.6 135.54-10.85Q130.94-9.95 130.94-6.15L130.94-6.15Q130.94-4.55 131.84-3.6 132.74-2.65 134.29-2.65L134.29-2.65ZM173.64 0L166.94 0 160.19-10.4 159.14-9.25 159.14 0 152.89 0 152.89-31.5 159.14-32.35 159.14-12.95 169.34-24 172.89-24 163.94-14.45 173.64 0ZM197.08-12L197.08-11.3 182.23-11.3Q182.23-6.4 183.38-4.45 184.53-2.5 187.13-2.5L187.13-2.5Q191.33-2.5 191.63-7.1L191.63-7.1 196.78-6.9Q196.43-3.4 194.18-1.4 191.93 0.6 186.88 0.6L186.88 0.6Q181.08 0.6 178.53-2.53 175.98-5.65 175.98-12L175.98-12Q175.98-17.7 178.36-21.15 180.73-24.6 186.78-24.6L186.78-24.6Q192.63-24.6 194.86-21.1 197.08-17.6 197.08-12L197.08-12ZM186.73-21.5Q184.58-21.5 183.56-19.88 182.53-18.25 182.33-14.4L182.33-14.4 191.03-14.4Q190.88-17.95 189.91-19.73 188.93-21.5 186.73-21.5L186.73-21.5Z" opacity="1" transform="matrix(1,0,0,1,0,0)" fill="#fce44d" class="wordmark-text-0" data-fill-palette-color="primary" id="text-0"></path></svg></g></svg></g></svg></g></svg></g></svg></g><defs></defs></svg><rect width="395.52" height="88.29119503362648" fill="none" stroke="none" visibility="hidden"></rect></g></svg></g></svg>